<svg width="47" height="50" viewBox="0 0 47 50" fill="none" xmlns="http://www.w3.org/2000/svg">
<path d="M24.8359 0.924209L18.4393 5.65281C18.3681 5.42951 18.2601 5.21372 18.1088 5.01612C17.3958 4.08353 16.0491 3.89587 15.1006 4.59696L8.23145 9.67479C7.28315 10.3758 7.0922 11.7002 7.80518 12.6329C7.95638 12.8307 8.1371 12.9926 8.33543 13.1221L1.93884 17.8506C1.48356 18.1871 1.18269 18.688 1.10275 19.2427C1.02281 19.7975 1.17031 20.3608 1.51258 20.8086L10.1193 32.0659C10.8323 32.9985 12.1791 33.1862 13.1276 32.4851L19.4243 27.8305L35.3466 48.6568C36.0595 49.5894 37.4064 49.777 38.3549 49.0759L45.2241 43.9981C45.6795 43.6616 45.9803 43.1607 46.0602 42.606C46.1402 42.0512 45.9927 41.4879 45.6502 41.0401L29.7281 20.2137L36.0247 15.559C36.4801 15.2224 36.781 14.7216 36.861 14.1668C36.9409 13.6121 36.7935 13.0488 36.451 12.6009L27.8442 1.34329C27.1312 0.410605 25.7844 0.222935 24.8359 0.924209ZM40.9247 41.8903L37.4902 44.4292L22.8587 25.2916L24.0991 24.3746L26.2934 22.7524L40.9247 41.8903ZM20.8712 21.4748L12.2627 27.8383L6.2381 19.9582L18.8315 10.6486L24.8561 18.5289L20.8712 21.4748ZM31.7253 13.4511L28.2907 15.9901L22.2661 8.10976L25.7006 5.57081L31.7253 13.4511Z" fill="#1C1917" stroke="#1C1917"/>
</svg>
