<svg width="48" height="53" viewBox="0 0 48 53" fill="none" xmlns="http://www.w3.org/2000/svg">
<path d="M22.7218 1.44865L29.2544 6.3635C29.3273 6.13154 29.4377 5.9074 29.5923 5.70218C30.321 4.7336 31.6969 4.53914 32.6656 5.26784L39.6808 10.5457C40.6492 11.2743 40.8438 12.6503 40.1151 13.6189C39.9606 13.8244 39.7759 13.9926 39.5732 14.127L46.1059 19.0417C46.5708 19.3915 46.878 19.9119 46.9594 20.4883C47.0409 21.0646 46.89 21.6498 46.5402 22.1149L37.7437 33.8067C37.015 34.7753 35.6391 34.9697 34.6704 34.241L28.2398 29.4031L11.9664 51.0331C11.2378 52.0017 9.86185 52.1962 8.89317 51.4675L1.87794 46.1897C1.41283 45.8398 1.10573 45.3194 1.02429 44.7431C0.942772 44.1667 1.09369 43.5816 1.4437 43.1165L17.7169 21.4863L11.2863 16.6483C10.8213 16.2984 10.514 15.778 10.4326 15.2017C10.3512 14.6253 10.5019 14.0401 10.852 13.575L19.6485 1.8829C20.3772 0.914222 21.7532 0.71976 22.7218 1.44865ZM6.27074 44.0015L9.77826 46.6404L24.7323 26.7642L23.4656 25.8111L21.2246 24.125L6.27074 44.0015ZM26.7642 22.7997L35.5557 29.4139L41.7132 21.2296L28.8519 11.5534L22.6945 19.7378L26.7642 22.7997ZM15.6792 14.46L19.1868 17.099L25.3443 8.91454L21.8367 6.27559L15.6792 14.46Z" fill="#1C1917" stroke="#1C1917"/>
</svg>
