<svg width="320" height="74" viewBox="0 0 320 74" fill="none" xmlns="http://www.w3.org/2000/svg">
<path d="M42.7681 57.784L65.5681 47.56V47.32H43.1521V39.4H69.1681V54.616L46.3681 64.84V65.08H69.5041V73H42.7681V57.784Z" fill="#1C1917"/>
<path d="M80.5846 73H71.0806L81.4486 56.248L71.0806 39.4H80.4886L83.9446 45.016C84.6806 46.2 85.2246 47.464 85.5766 48.808C85.9286 50.12 86.1046 51.48 86.1046 52.888H86.3446C86.3446 51.48 86.5046 50.12 86.8246 48.808C87.1766 47.464 87.7206 46.2 88.4566 45.016L91.9126 39.4H101.273L90.9046 56.248L101.225 73H91.7686L88.4086 67.576C87.6726 66.392 87.1446 65.128 86.8246 63.784C86.5046 62.44 86.3446 61.064 86.3446 59.656H86.1046C86.1046 61.064 85.9286 62.44 85.5766 63.784C85.2246 65.096 84.6806 66.344 83.9446 67.528L80.5846 73Z" fill="#1C1917"/>
<path d="M114.437 73.336C109.285 73.336 105.349 71.88 102.629 68.968C99.9093 66.024 98.5493 61.768 98.5493 56.2C98.5493 50.632 99.9093 46.392 102.629 43.48C105.349 40.536 109.285 39.064 114.437 39.064C119.109 39.064 122.741 40.248 125.333 42.616C127.925 44.952 129.397 48.36 129.749 52.84H121.349C121.061 50.824 120.357 49.352 119.237 48.424C118.117 47.464 116.517 46.984 114.437 46.984C111.845 46.984 109.941 47.72 108.725 49.192C107.541 50.664 106.949 53 106.949 56.2C106.949 59.4 107.541 61.736 108.725 63.208C109.941 64.68 111.845 65.416 114.437 65.416C118.533 65.416 120.837 63.464 121.349 59.56H129.749C129.333 64.04 127.829 67.464 125.237 69.832C122.677 72.168 119.077 73.336 114.437 73.336Z" fill="#1C1917"/>
<path d="M131.221 54.904H154.117V63.304H131.221V54.904Z" fill="#1C1917"/>
<path d="M162.239 47.32H152.831V39.4H180.095V47.32H170.639V73H162.239V47.32Z" fill="#1C1917"/>
<path d="M182.092 39.4H205.468V47.32H190.492V51.976H204.508V59.896H190.492V65.08H205.468V73H182.092V39.4Z" fill="#1C1917"/>
<path d="M207.545 39.4H223.529L226.457 69.4H226.697V39.4H235.097V73H219.113L216.185 43H215.945V73H207.545V39.4Z" fill="#1C1917"/>
<path d="M237.639 39.4H249.255C251.655 39.4 253.815 39.784 255.735 40.552C257.655 41.288 259.287 42.376 260.631 43.816C261.975 45.224 263.015 46.952 263.751 49C264.487 51.016 264.855 53.32 264.855 55.912C264.855 58.568 264.487 60.952 263.751 63.064C263.015 65.176 261.959 66.968 260.583 68.44C259.239 69.912 257.607 71.048 255.687 71.848C253.767 72.616 251.623 73 249.255 73H237.639V39.4ZM249.255 65.08C251.463 65.08 253.207 64.296 254.487 62.728C255.799 61.16 256.455 58.936 256.455 56.056C256.455 53.144 255.815 50.968 254.535 49.528C253.287 48.056 251.527 47.32 249.255 47.32H246.039V65.08H249.255Z" fill="#1C1917"/>
<path d="M266.936 39.4H290.312V47.32H275.336V51.976H289.352V59.896H275.336V65.08H290.312V73H266.936V39.4Z" fill="#1C1917"/>
<path d="M300.789 62.584V73H292.389V39.4H307.893C311.317 39.4 314.005 40.28 315.957 42.04C317.941 43.768 318.933 46.152 318.933 49.192C318.933 52.104 318.021 54.36 316.197 55.96C314.405 57.56 311.861 58.36 308.565 58.36V58.6C313.941 58.6 317.013 60.44 317.781 64.12L319.605 73H311.061L309.237 64.456C308.981 63.208 308.213 62.584 306.933 62.584H300.789ZM308.277 54.664C309.173 54.664 309.877 54.328 310.389 53.656C310.933 52.984 311.205 52.088 311.205 50.968C311.205 49.848 310.933 48.968 310.389 48.328C309.877 47.656 309.173 47.32 308.277 47.32H300.789V54.664H308.277Z" fill="#1C1917"/>
<path d="M22.7218 1.44865L29.2544 6.3635C29.3273 6.13154 29.4377 5.9074 29.5923 5.70218C30.321 4.7336 31.6969 4.53914 32.6656 5.26784L39.6808 10.5457C40.6492 11.2743 40.8438 12.6503 40.1151 13.6189C39.9606 13.8244 39.7759 13.9926 39.5732 14.127L46.1059 19.0417C46.5708 19.3915 46.878 19.9119 46.9594 20.4883C47.0409 21.0646 46.89 21.6498 46.5402 22.1149L37.7437 33.8067C37.015 34.7753 35.6391 34.9697 34.6704 34.241L28.2398 29.4031L11.9664 51.0331C11.2378 52.0017 9.86185 52.1962 8.89317 51.4675L1.87794 46.1897C1.41283 45.8398 1.10573 45.3194 1.02429 44.7431C0.942772 44.1667 1.09369 43.5816 1.4437 43.1165L17.7169 21.4863L11.2863 16.6483C10.8213 16.2984 10.514 15.778 10.4326 15.2017C10.3512 14.6253 10.5019 14.0401 10.852 13.575L19.6485 1.8829C20.3772 0.914222 21.7532 0.71976 22.7218 1.44865ZM6.27074 44.0015L9.77826 46.6404L24.7323 26.7642L23.4656 25.8111L21.2246 24.125L6.27074 44.0015ZM26.7642 22.7997L35.5557 29.4139L41.7132 21.2296L28.8519 11.5534L22.6945 19.7378L26.7642 22.7997ZM15.6792 14.46L19.1868 17.099L25.3443 8.91454L21.8367 6.27559L15.6792 14.46Z" fill="#1C1917" stroke="#1C1917"/>
</svg>
