<svg width="333" height="51" viewBox="0 0 333 51" fill="none" xmlns="http://www.w3.org/2000/svg">
<path d="M56 26.7831L78.8 16.5591V16.3191H56.384V8.39911H82.4V23.6151L59.6 33.8391V34.0791H82.736V41.9991H56V26.7831Z" fill="#1C1917"/>
<path d="M93.8165 41.9991H84.3125L94.6805 25.2471L84.3125 8.39911H93.7205L97.1765 14.0151C97.9125 15.1991 98.4565 16.4631 98.8085 17.8071C99.1605 19.1191 99.3365 20.4791 99.3365 21.8871H99.5765C99.5765 20.4791 99.7365 19.1191 100.056 17.8071C100.409 16.4631 100.952 15.1991 101.688 14.0151L105.145 8.39911H114.505L104.137 25.2471L114.457 41.9991H105L101.64 36.5751C100.904 35.3911 100.376 34.1271 100.056 32.7831C99.7365 31.4391 99.5765 30.0631 99.5765 28.6551H99.3365C99.3365 30.0631 99.1605 31.4391 98.8085 32.7831C98.4565 34.0951 97.9125 35.3431 97.1765 36.5271L93.8165 41.9991Z" fill="#1C1917"/>
<path d="M127.669 42.3351C122.517 42.3351 118.581 40.8791 115.861 37.9671C113.141 35.0231 111.781 30.7671 111.781 25.1991C111.781 19.6311 113.141 15.3911 115.861 12.4791C118.581 9.53511 122.517 8.06311 127.669 8.06311C132.341 8.06311 135.973 9.24711 138.565 11.6151C141.157 13.9511 142.629 17.3591 142.981 21.8391H134.581C134.293 19.8231 133.589 18.3511 132.469 17.4231C131.349 16.4631 129.749 15.9831 127.669 15.9831C125.077 15.9831 123.173 16.7191 121.957 18.1911C120.773 19.6631 120.181 21.9991 120.181 25.1991C120.181 28.3991 120.773 30.7351 121.957 32.2071C123.173 33.6791 125.077 34.4151 127.669 34.4151C131.765 34.4151 134.069 32.4631 134.581 28.5591H142.981C142.565 33.0391 141.061 36.4631 138.469 38.8311C135.909 41.1671 132.309 42.3351 127.669 42.3351Z" fill="#1C1917"/>
<path d="M144.453 23.9031H167.349V32.3031H144.453V23.9031Z" fill="#1C1917"/>
<path d="M175.47 16.3191H166.062V8.39911H193.327V16.3191H183.87V41.9991H175.47V16.3191Z" fill="#1C1917"/>
<path d="M195.324 8.39911H218.7V16.3191H203.724V20.9751H217.74V28.8951H203.724V34.0791H218.7V41.9991H195.324V8.39911Z" fill="#1C1917"/>
<path d="M220.777 8.39911H236.761L239.689 38.3991H239.929V8.39911H248.329V41.9991H232.345L229.417 11.9991H229.177V41.9991H220.777V8.39911Z" fill="#1C1917"/>
<path d="M250.871 8.39911H262.487C264.887 8.39911 267.047 8.78311 268.967 9.55111C270.887 10.2871 272.519 11.3751 273.863 12.8151C275.207 14.2231 276.247 15.9511 276.983 17.9991C277.719 20.0151 278.087 22.3191 278.087 24.9111C278.087 27.5671 277.719 29.9511 276.983 32.0631C276.247 34.1751 275.191 35.9671 273.815 37.4391C272.471 38.9111 270.839 40.0471 268.919 40.8471C266.999 41.6151 264.855 41.9991 262.487 41.9991H250.871V8.39911ZM262.487 34.0791C264.695 34.0791 266.439 33.2951 267.719 31.7271C269.031 30.1591 269.687 27.9351 269.687 25.0551C269.687 22.1431 269.047 19.9671 267.767 18.5271C266.519 17.0551 264.759 16.3191 262.487 16.3191H259.271V34.0791H262.487Z" fill="#1C1917"/>
<path d="M280.167 8.39911H303.544V16.3191H288.568V20.9751H302.583V28.8951H288.568V34.0791H303.544V41.9991H280.167V8.39911Z" fill="#1C1917"/>
<path d="M314.021 31.5831V41.9991H305.621V8.39911H321.125C324.549 8.39911 327.237 9.27911 329.189 11.0391C331.173 12.7671 332.165 15.1511 332.165 18.1911C332.165 21.1031 331.253 23.3591 329.429 24.9591C327.637 26.5591 325.093 27.3591 321.797 27.3591V27.5991C327.173 27.5991 330.245 29.4391 331.013 33.1191L332.837 41.9991H324.293L322.469 33.4551C322.213 32.2071 321.445 31.5831 320.165 31.5831H314.021ZM321.509 23.6631C322.405 23.6631 323.109 23.3271 323.621 22.6551C324.165 21.9831 324.437 21.0871 324.437 19.9671C324.437 18.8471 324.165 17.9671 323.621 17.3271C323.109 16.6551 322.405 16.3191 321.509 16.3191H314.021V23.6631H321.509Z" fill="#1C1917"/>
<path d="M24.7544 1.42421L18.3578 6.15281C18.2866 5.92951 18.1786 5.71372 18.0273 5.51612C17.3143 4.58353 15.9675 4.39587 15.019 5.09696L8.14991 10.1748C7.20161 10.8758 7.01066 12.2002 7.72363 13.1329C7.87484 13.3307 8.05555 13.4926 8.25388 13.6221L1.8573 18.3506C1.40202 18.6871 1.10114 19.188 1.0212 19.7427C0.941268 20.2975 1.08877 20.8608 1.43103 21.3086L10.0378 32.5659C10.7508 33.4985 12.0976 33.6862 13.0461 32.9851L19.3427 28.3305L35.2651 49.1568C35.978 50.0894 37.3249 50.277 38.2734 49.5759L45.1425 44.4981C45.5979 44.1616 45.8988 43.6607 45.9787 43.106C46.0587 42.5512 45.9112 41.9879 45.5687 41.5401L29.6465 20.7137L35.9432 16.059C36.3985 15.7224 36.6995 15.2216 36.7794 14.6668C36.8593 14.1121 36.712 13.5488 36.3694 13.1009L27.7627 1.84329C27.0497 0.910605 25.7028 0.722935 24.7544 1.42421ZM40.8432 42.3903L37.4087 44.9292L22.7772 25.7916L24.0176 24.8746L26.2119 23.2524L40.8432 42.3903ZM20.7896 21.9748L12.1812 28.3383L6.15656 20.4582L18.75 11.1486L24.7745 19.0289L20.7896 21.9748ZM31.6437 13.9511L28.2092 16.4901L22.1845 8.60976L25.6191 6.07081L31.6437 13.9511Z" fill="#1C1917" stroke="#1C1917"/>
</svg>
